<svg id="Layer_1" data-name="Layer 1" xmlns="http://www.w3.org/2000/svg" viewBox="0 0 126.67 32.31"><defs><style>.cls-1{fill:#e2231a;}.cls-2{fill:#231f20;}</style></defs><title>aarp-logo</title><path class="cls-1" d="M88.94,7.64c0-2.28-1.21-3.91-3.52-3.91H83.88v7.81h1.54c2.16,0,3.52-1.46,3.52-3.9m-22.24,0a3.58,3.58,0,0,0-3.95-3.91H61.64v7.81h1.12c2.61,0,3.95-1.48,3.95-3.9M43.17,12.29L40.84,6.05l-2.37,6.23a23.21,23.21,0,0,1,2.37-.16,20,20,0,0,1,2.33.16m-18.91.13L21.92,6l-2.29,6.17,1.25,0a18.48,18.48,0,0,1,3.38.3m72.5-4.78c0,4.48-3.54,7.36-9.37,7.36H83.88v6.21H68l-6.4-8.43v8.43H46.35l-1.68-4.63a22.35,22.35,0,0,0-3.83-.34,24.5,24.5,0,0,0-3.89.33l-1.72,4.64H27.43l-1.27-3.52a15.5,15.5,0,0,1,4.1,1.69l0.32-.8a18.3,18.3,0,0,0-9.19-2.36c-3.65,0-6,.89-9.77.89A19.6,19.6,0,0,1,1,14l1.64-4a18.48,18.48,0,0,0,9.24,2.92A21.22,21.22,0,0,0,14,12.77l5.12-12.5h8.51L32.7,13.4,38.06,0.27h8.52L54,19.59V0.27H64.21c6.92,0,10.32,3.18,10.32,7.36a6.71,6.71,0,0,1-4.21,6.22l6,6.49V0.27H87.39c6.15,0,9.37,3.11,9.37,7.36M17.7,17.25h0.05l-1.46,4H10.47l1.41-3.39h0.05a32.22,32.22,0,0,0,5.76-.57h0Z" transform="translate(-1 -0.27)"/><path class="cls-1" d="M98.51,2.32h0.27a0.47,0.47,0,0,0,.57-0.4,0.47,0.47,0,0,0-.57-0.41l-0.27,0v0.8Zm0,1.31H98.14V1.26a4.17,4.17,0,0,1,.67-0.06,1.25,1.25,0,0,1,.74.18,0.57,0.57,0,0,1,.22.49,0.59,0.59,0,0,1-.46.57v0a0.57,0.57,0,0,1,.4.58,2,2,0,0,0,.15.58h-0.4A1.79,1.79,0,0,1,99.29,3a0.44,0.44,0,0,0-.51-0.41H98.51v1Zm0.4-3a1.75,1.75,0,0,0-1.7,1.79,1.7,1.7,0,1,0,3.4,0A1.74,1.74,0,0,0,98.92.6h0Zm0-.33A2.09,2.09,0,0,1,101,2.39a2.1,2.1,0,1,1-4.19,0A2.11,2.11,0,0,1,98.91.27h0Z" transform="translate(-1 -0.27)"/><path class="cls-1" d="M54,25.61h2.41c1.75,0,2.2,1.06,2.2,1.92a1.84,1.84,0,0,1-1.69,1.81l1.95,3.13H57.71l-1.74-3h-1v3H54V25.61Zm0.93,3h1.22c0.74,0,1.47-.17,1.47-1.1s-0.74-1.1-1.47-1.1H54.93v2.21Z" transform="translate(-1 -0.27)"/><path class="cls-2" d="M60.62,30.49a1.44,1.44,0,0,0,1.55,1.34,1.58,1.58,0,0,0,1.26-.69l0.66,0.5a2.4,2.4,0,0,1-2,.94,2.28,2.28,0,0,1-2.36-2.41,2.33,2.33,0,0,1,2.37-2.41,2.19,2.19,0,0,1,2.24,2.42v0.31H60.62Zm2.75-.7A1.24,1.24,0,0,0,62,28.46a1.42,1.42,0,0,0-1.42,1.34h2.75Z" transform="translate(-1 -0.27)"/><path class="cls-2" d="M65.42,28.44a2.71,2.71,0,0,1,1.82-.68c1.36,0,1.92.74,1.92,1.53v2.34a7.07,7.07,0,0,0,0,.83H68.42q0-.35,0-0.7h0a1.75,1.75,0,0,1-1.61.81,1.43,1.43,0,0,1-1.59-1.38c0-1.18,1.13-1.59,2.53-1.59h0.64V29.43a1,1,0,0,0-1.09-1,1.91,1.91,0,0,0-1.31.52Zm2.46,1.82c-0.82,0-1.83.15-1.83,0.88a0.8,0.8,0,0,0,1,.75,1.24,1.24,0,0,0,1.31-1.34V30.26H67.88Z" transform="translate(-1 -0.27)"/><path class="cls-2" d="M70.69,25.14h0.87v7.33H70.69V25.14Z" transform="translate(-1 -0.27)"/><path class="cls-1" d="M76.35,25.61h2.41c1.75,0,2.2,1.06,2.2,1.92s-0.45,1.92-2.2,1.92H77.28v3H76.35V25.61Zm0.93,3H78.5c0.74,0,1.47-.17,1.47-1.1s-0.74-1.1-1.47-1.1H77.28v2.21Z" transform="translate(-1 -0.27)"/><path class="cls-2" d="M83.87,27.76a2.41,2.41,0,1,1-2.44,2.41A2.41,2.41,0,0,1,83.87,27.76Zm0,4a1.6,1.6,0,1,0-1.51-1.6A1.47,1.47,0,0,0,83.87,31.77Z" transform="translate(-1 -0.27)"/><path class="cls-2" d="M90,29a1.16,1.16,0,0,0-.94-0.46,0.65,0.65,0,0,0-.77.51c0,0.55.78,0.63,1.17,0.72a1.37,1.37,0,0,1,1.34,1.34A1.6,1.6,0,0,1,89,32.58a2,2,0,0,1-1.77-.81l0.66-.54a1.52,1.52,0,0,0,1.11.54,0.8,0.8,0,0,0,.93-0.58c0-.52-0.73-0.62-1.1-0.71-0.75-.18-1.4-0.43-1.4-1.31a1.55,1.55,0,0,1,1.74-1.41,1.77,1.77,0,0,1,1.57.76Z" transform="translate(-1 -0.27)"/><path class="cls-2" d="M94.52,29a1.16,1.16,0,0,0-.94-0.46,0.65,0.65,0,0,0-.77.51c0,0.55.78,0.63,1.17,0.72a1.37,1.37,0,0,1,1.34,1.34,1.6,1.6,0,0,1-1.86,1.44,2,2,0,0,1-1.77-.81l0.66-.54a1.52,1.52,0,0,0,1.11.54,0.8,0.8,0,0,0,.93-0.58c0-.52-0.73-0.62-1.1-0.71-0.75-.18-1.41-0.43-1.41-1.31a1.55,1.55,0,0,1,1.74-1.41,1.77,1.77,0,0,1,1.57.76Z" transform="translate(-1 -0.27)"/><path class="cls-2" d="M97.06,25.59a0.64,0.64,0,1,1-.64.64A0.65,0.65,0,0,1,97.06,25.59Zm-0.44,2.29H97.5v4.59H96.63V27.88Z" transform="translate(-1 -0.27)"/><path class="cls-2" d="M99.08,25.14h0.87v3.39h0a1.92,1.92,0,0,1,1.6-.78,2.41,2.41,0,0,1,0,4.83,2,2,0,0,1-1.6-.78h0v0.66H99.08V25.14Zm3.9,5a1.51,1.51,0,1,0-1.51,1.6A1.47,1.47,0,0,0,103,30.17Z" transform="translate(-1 -0.27)"/><path class="cls-2" d="M105.45,25.59a0.64,0.64,0,1,1-.64.64A0.65,0.65,0,0,1,105.45,25.59ZM105,27.88h0.87v4.59H105V27.88Z" transform="translate(-1 -0.27)"/><path class="cls-2" d="M107.44,25.14h0.87v7.33h-0.87V25.14Z" transform="translate(-1 -0.27)"/><path class="cls-2" d="M110.31,25.59a0.64,0.64,0,1,1-.64.64A0.65,0.65,0,0,1,110.31,25.59Zm-0.44,2.29h0.87v4.59h-0.87V27.88Z" transform="translate(-1 -0.27)"/><path class="cls-2" d="M115.06,28.63h-1.25v2.08c0,0.51,0,1.06.66,1.06a1.24,1.24,0,0,0,.62-0.14v0.79a2,2,0,0,1-.78.16c-1.35,0-1.37-.82-1.37-1.56V28.63h-1V27.88h1V26.59h0.87v1.29h1.25v0.76Z" transform="translate(-1 -0.27)"/><path class="cls-2" d="M116.78,25.59a0.64,0.64,0,1,1-.64.64A0.65,0.65,0,0,1,116.78,25.59Zm-0.44,2.29h0.87v4.59h-0.87V27.88Z" transform="translate(-1 -0.27)"/><path class="cls-2" d="M119.51,30.49a1.44,1.44,0,0,0,1.55,1.34,1.58,1.58,0,0,0,1.26-.69l0.66,0.5a2.4,2.4,0,0,1-2,.94,2.28,2.28,0,0,1-2.36-2.41A2.33,2.33,0,0,1,121,27.76a2.19,2.19,0,0,1,2.24,2.42v0.31h-3.68Zm2.75-.7a1.24,1.24,0,0,0-1.33-1.34,1.42,1.42,0,0,0-1.42,1.34h2.75Z" transform="translate(-1 -0.27)"/><path class="cls-2" d="M126.86,29a1.16,1.16,0,0,0-.94-0.46,0.65,0.65,0,0,0-.77.51c0,0.55.78,0.63,1.17,0.72a1.37,1.37,0,0,1,1.34,1.34,1.6,1.6,0,0,1-1.86,1.44,2,2,0,0,1-1.77-.81l0.66-.54a1.52,1.52,0,0,0,1.11.54,0.8,0.8,0,0,0,.93-0.58c0-.52-0.73-0.62-1.1-0.71-0.75-.18-1.41-0.43-1.41-1.31A1.55,1.55,0,0,1,126,27.76a1.77,1.77,0,0,1,1.57.76Z" transform="translate(-1 -0.27)"/></svg>