<svg id="Layer_1" data-name="Layer 1" xmlns="http://www.w3.org/2000/svg" xmlns:xlink="http://www.w3.org/1999/xlink" viewBox="0 0 142.12 136.14"><defs><linearGradient id="linear-gradient" x1="-68.52" y1="-62.45" x2="67.62" y2="-62.45" gradientTransform="translate(140 76) rotate(-90)" gradientUnits="userSpaceOnUse"><stop offset="0" stop-color="#fff"/><stop offset="0.2" stop-color="#c2c2c2"/><stop offset="0.49" stop-color="#707070"/><stop offset="0.73" stop-color="#333"/><stop offset="0.91" stop-color="#0e0e0e"/><stop offset="1"/></linearGradient><linearGradient id="linear-gradient-2" x1="-68.52" y1="-34.81" x2="67.62" y2="-34.81" xlink:href="#linear-gradient"/><linearGradient id="linear-gradient-3" x1="-68.52" y1="-44.58" x2="67.62" y2="-44.58" xlink:href="#linear-gradient"/><linearGradient id="linear-gradient-4" x1="-68.52" y1="-69.68" x2="67.62" y2="-69.68" xlink:href="#linear-gradient"/><linearGradient id="linear-gradient-5" x1="-68.52" y1="-112.21" x2="67.62" y2="-112.21" xlink:href="#linear-gradient"/><linearGradient id="linear-gradient-6" x1="-68.52" y1="-98.15" x2="67.62" y2="-98.15" xlink:href="#linear-gradient"/><linearGradient id="linear-gradient-7" x1="-68.52" y1="-78.26" x2="67.62" y2="-78.26" xlink:href="#linear-gradient"/><linearGradient id="linear-gradient-8" x1="-68.52" y1="-50.39" x2="67.62" y2="-50.39" xlink:href="#linear-gradient"/><linearGradient id="linear-gradient-9" x1="-68.52" y1="-64.66" x2="67.62" y2="-64.66" xlink:href="#linear-gradient"/><linearGradient id="linear-gradient-10" x1="-68.52" y1="-75.78" x2="67.62" y2="-75.78" xlink:href="#linear-gradient"/><linearGradient id="linear-gradient-11" x1="-68.52" y1="-95.61" x2="67.62" y2="-95.61" xlink:href="#linear-gradient"/><linearGradient id="linear-gradient-12" x1="-68.52" y1="-41.64" x2="67.62" y2="-41.64" xlink:href="#linear-gradient"/><linearGradient id="linear-gradient-13" x1="-68.52" y1="-92.47" x2="67.62" y2="-92.47" xlink:href="#linear-gradient"/><linearGradient id="linear-gradient-14" x1="-68.52" y1="-28.28" x2="67.62" y2="-28.28" xlink:href="#linear-gradient"/><linearGradient id="linear-gradient-15" x1="-68.52" y1="-63.98" x2="67.62" y2="-63.98" xlink:href="#linear-gradient"/><linearGradient id="linear-gradient-16" x1="-68.52" y1="-29.38" x2="67.62" y2="-29.38" xlink:href="#linear-gradient"/><linearGradient id="linear-gradient-17" x1="-68.52" y1="-97.7" x2="67.62" y2="-97.7" xlink:href="#linear-gradient"/><linearGradient id="linear-gradient-18" x1="-68.52" y1="-84.48" x2="67.62" y2="-84.48" xlink:href="#linear-gradient"/><linearGradient id="linear-gradient-19" x1="-68.52" y1="17.39" x2="67.62" y2="17.39" xlink:href="#linear-gradient"/><linearGradient id="linear-gradient-20" x1="-68.52" y1="-25.61" x2="67.62" y2="-25.61" xlink:href="#linear-gradient"/><linearGradient id="linear-gradient-21" x1="-68.52" y1="-10.28" x2="67.62" y2="-10.28" xlink:href="#linear-gradient"/></defs><title>AARP-logos-images</title><path d="M74.88,49.73a1.26,1.26,0,0,1-1.07-1.14H72.32v0.56l10.46,2.41Z" transform="translate(-20 -8.38)" opacity="0.1" fill="url(#linear-gradient)"/><path d="M109.33,35.27l-3.05-.71a23.31,23.31,0,0,1-4.13,5.76l1.68,2.79a1.38,1.38,0,0,1-.48,1.93l-5.87,3.52h10.25l5.19-22.52L111,34.22A1.38,1.38,0,0,1,109.33,35.27Z" transform="translate(-20 -8.38)" opacity="0.1" fill="url(#linear-gradient-2)"/><path d="M96.09,49.41a1.38,1.38,0,0,1-1.93-.48l-0.21-.34H85.27l-0.46,2a1.37,1.37,0,0,1-1.68,1.06l22.68,5.23,1.91-8.28H97.46Z" transform="translate(-20 -8.38)" opacity="0.1" fill="url(#linear-gradient-3)"/><path d="M76.09,29.87a47.2,47.2,0,0,1-8.41-1.09h0l-0.07,0-3.14,4.38,0.11,0L72.65,35l0.11,0,3.4-5.17H76.09Z" transform="translate(-20 -8.38)" opacity="0.1" fill="url(#linear-gradient-4)"/><path d="M29.79,108.22l0.13,0,0.24-7.57-0.08,0v0A51.2,51.2,0,0,1,25.42,103q1.27,3,2.81,5.77Z" transform="translate(-20 -8.38)" opacity="0.1" fill="url(#linear-gradient-5)"/><path d="M52.77,95.58l-0.1,1.54a27.94,27.94,0,0,0-7.94-.55l4.16,5.27,13.26-4.43L37.34,66.11l-6.11,2-7.12,2.37-1.25.42L21.55,90.82a66.93,66.93,0,0,0,3.37,10.9c3.58-1.69,6.56-3.5,10.88-4.94A32.8,32.8,0,0,1,52.77,95.58ZM30.48,90.86l0.39-11.8,7.64,9.64a33.16,33.16,0,0,0-5.92,1.42C31.83,90.36,31.13,90.61,30.48,90.86Z" transform="translate(-20 -8.38)" opacity="0.1" fill="url(#linear-gradient-6)"/><path d="M66.09,73.13l3.24,9.71A1.69,1.69,0,0,1,68.24,85L64.6,86.24A28.55,28.55,0,0,1,64,94.9l3.54,1.85a1.69,1.69,0,0,1,.73,2.33l-4.79,9.18a1.69,1.69,0,0,1-2.33.73l-3.37-1.76a28.63,28.63,0,0,1-6.6,5.66l1.27,3.79a1.68,1.68,0,0,1-1.08,2.18l21-7V91.75Z" transform="translate(-20 -8.38)" opacity="0.1" fill="url(#linear-gradient-7)"/><path d="M92.56,46.27a23.39,23.39,0,0,1-7,1.13l-0.27,1.19h8.68Z" transform="translate(-20 -8.38)" opacity="0.1" fill="url(#linear-gradient-8)"/><path d="M72.32,91.75h0v20.09l6-2-5-14.87-1.07-.54V91.75Z" transform="translate(-20 -8.38)" opacity="0.1" fill="url(#linear-gradient-9)"/><path d="M64.82,12.66l-1.2.47,0.83,0.19C64.57,13.09,64.7,12.88,64.82,12.66Z" transform="translate(-20 -8.38)" opacity="0.1" fill="url(#linear-gradient-10)"/><path d="M30,55a1.69,1.69,0,0,1,2.18,1.09l1.27,3.8a28.44,28.44,0,0,1,8.9.61l1.85-3.7A1.69,1.69,0,0,1,46.54,56l9.26,4.63A1.69,1.69,0,0,1,56.57,63L54.7,66.74a28.53,28.53,0,0,1,5.53,6.4l3.64-1.21A1.69,1.69,0,0,1,66.05,73L57,46,22.74,57.45h0Z" transform="translate(-20 -8.38)" opacity="0.1" fill="url(#linear-gradient-11)"/><path d="M107.68,111.21a83.62,83.62,0,0,1-14.95,1.46H92.6l-3.68,8.8H104l3.81-10.28-0.13,0v0Z" transform="translate(-20 -8.38)" opacity="0.1" fill="url(#linear-gradient-12)"/><path d="M66.05,73l0,0.11,6.23,18.62V49.15L52.24,44.52,59,15.09A68.46,68.46,0,0,0,22.74,57.45L57,46Z" transform="translate(-20 -8.38)" opacity="0.1" fill="url(#linear-gradient-13)"/><path d="M111.05,13a1.38,1.38,0,0,1-.45,1.94l-2.91,1.82a23.3,23.3,0,0,1,1.12,6.82l3.05,0.71A1.38,1.38,0,0,1,112.93,26l2.82-12.22c-1.79-.75-3.62-1.41-5.48-2Z" transform="translate(-20 -8.38)" opacity="0.1" fill="url(#linear-gradient-14)"/><path d="M72.32,49.15V48.58h1.49a1.91,1.91,0,0,1,0-.55l0.75-3.26a23.23,23.23,0,0,1-5.47-3.92l-2.75,1.71a1.38,1.38,0,0,1-1.94-.45l-4.48-7.17A1.38,1.38,0,0,1,60.39,33l2.7-1.69A23.23,23.23,0,0,1,62,25.77a28.18,28.18,0,0,0,5.5,1.9c5.42,1.25,9,.75,14.23,2A26.79,26.79,0,0,1,94,36l-0.72,1A22.82,22.82,0,0,0,88,33.29l0.65,5.45L99.8,41.31,95.87,8.93l-1.26-.29c-1.89-.15-3.8-0.25-5.74-0.25q-3.54,0-7,.35L72.3,22.27a31,31,0,0,1-3.07-.55,25.75,25.75,0,0,1-10.46-5.57L59,15.09h0L52.24,44.52Zm13.52-34,1.21,10a27.08,27.08,0,0,0-4.73-1.54c-0.64-.15-1.23-0.27-1.79-0.38Z" transform="translate(-20 -8.38)" opacity="0.1" fill="url(#linear-gradient-15)"/><path d="M111,140.92v-3.37a41.15,41.15,0,0,1-11-4.6L95.93,137a2.45,2.45,0,0,1-3.53,0l-10.59-10.6a2.45,2.45,0,0,1,0-3.53l4-4a41.17,41.17,0,0,1-4.11-9.12,49.93,49.93,0,0,0,10.24,1.09c9.85,0,15.88-2.3,25.35-2.29a47.46,47.46,0,0,1,23.83,6.16l-0.84,2.07a40.42,40.42,0,0,0-10.64-4.4l3.29,9.14h7.55a68.25,68.25,0,0,0,8.44-11.72L133.5,67.18H111.42L98.11,99.59a55,55,0,0,1-5.52.27c-7.7,0-14.74-2.72-19.2-4.92l5,14.87-6,2v30.69A69.68,69.68,0,0,0,111,140.92ZM118.67,82l6.05,16.73a48,48,0,0,0-8.77-.77c-1.16,0-2.23,0-3.24.06Z" transform="translate(-20 -8.38)" opacity="0.1" fill="url(#linear-gradient-16)"/><path d="M41.51,122.14a1.69,1.69,0,0,1-2.18-1.09L38,117.16a28.38,28.38,0,0,1-4.38,0,68.61,68.61,0,0,0,5.07,5.95L50.95,119Z" transform="translate(-20 -8.38)" opacity="0.1" fill="url(#linear-gradient-17)"/><path d="M51.34,118.86l-0.39.13-12.22,4.09a69,69,0,0,0,33.6,19.44V111.84Z" transform="translate(-20 -8.38)" opacity="0.1" fill="url(#linear-gradient-18)"/><path d="M157.73,75.31L157,76c0.25,0.42.47,0.87,0.71,1.3,0-.29,0-0.57,0-0.86S157.74,75.69,157.73,75.31Z" transform="translate(-20 -8.38)" opacity="0.1" fill="url(#linear-gradient-19)"/><path d="M105.81,56.86L83.12,51.64l-0.35-.08L72.32,49.15v42.6h0v-2a2.45,2.45,0,0,1,2.5-2.5H81A41.35,41.35,0,0,1,86.46,74.7l-4.14-4.3a2.45,2.45,0,0,1,.06-3.53l10.79-10.4a2.45,2.45,0,0,1,3.53.06L101,61a41.45,41.45,0,0,1,10-4V51.08a2.45,2.45,0,0,1,2.5-2.49h15A2.45,2.45,0,0,1,131,51.1v5.79A41.15,41.15,0,0,1,143,61.81l4.24-4.23a2.44,2.44,0,0,1,3.53,0l5.72,5.73a67,67,0,0,0-4.75-14.73h-44Z" transform="translate(-20 -8.38)" opacity="0.1" fill="url(#linear-gradient-20)"/><path d="M112.91,26.06l-5.19,22.52h44a68.74,68.74,0,0,0-36-34.83L112.93,26Z" transform="translate(-20 -8.38)" opacity="0.1" fill="url(#linear-gradient-21)"/><path d="M161.33,71.72a2.45,2.45,0,0,0,0-3.53l-4.86-4.87a67.56,67.56,0,0,1,1.26,12Z" transform="translate(-20 -8.38)" fill="#ee3124"/><path d="M157.73,75.31a67.56,67.56,0,0,0-1.26-12l-5.72-5.73a2.44,2.44,0,0,0-3.53,0L143,61.81A41.15,41.15,0,0,0,131,56.89V51.1a2.45,2.45,0,0,0-2.49-2.5h-15a2.45,2.45,0,0,0-2.5,2.49V57a41.45,41.45,0,0,0-10,4L96.7,56.54a2.45,2.45,0,0,0-3.53-.06L82.38,66.88a2.45,2.45,0,0,0-.06,3.53l4.14,4.3A41.35,41.35,0,0,0,81,87.26H74.82a2.45,2.45,0,0,0-2.5,2.5v2l1.07,3.19c4.45,2.2,11.5,4.91,19.2,4.92a55,55,0,0,0,5.52-.27l13.31-32.43H133.5l15.42,42.62a67.1,67.1,0,0,0,8.82-32.49c-0.24-.43-0.46-0.88-0.71-1.3Z" transform="translate(-20 -8.38)" fill="#ee3124"/><path d="M72.32,94.4l1.07,0.54-1.07-3.19V94.4Z" transform="translate(-20 -8.38)" fill="#ee3124"/><path d="M129.64,112.37a40.42,40.42,0,0,1,10.64,4.4l0.84-2.07a47.46,47.46,0,0,0-23.83-6.16c-9.47,0-15.5,2.3-25.35,2.29a49.93,49.93,0,0,1-10.24-1.09,41.17,41.17,0,0,0,4.11,9.12l-4,4a2.45,2.45,0,0,0,0,3.53L92.4,137a2.45,2.45,0,0,0,3.53,0L100,133a41.15,41.15,0,0,0,11,4.6v3.37a69,69,0,0,0,29.49-19.39h-7.55ZM104,121.49H88.92l3.68-8.8h0.13a83.62,83.62,0,0,0,14.95-1.46v0l0.13,0Z" transform="translate(-20 -8.38)" fill="#ee3124"/><path d="M124.72,98.7L118.67,82l-6,16c1,0,2.08-.06,3.24-0.06A48,48,0,0,1,124.72,98.7Z" transform="translate(-20 -8.38)" fill="#ee3124"/><path d="M64.27,12.87l-0.64.25c-1.56.61-3.1,1.25-4.6,2l-0.24,1.05a25.75,25.75,0,0,0,10.46,5.57,31,31,0,0,0,3.07.55L81.88,8.73a69.15,69.15,0,0,0-17.06,3.93C64.64,12.74,64.58,12.76,64.27,12.87Z" transform="translate(-20 -8.38)" fill="#62a5aa"/><path d="M96.09,49.41l1.38-.83H93.95l0.21,0.34A1.38,1.38,0,0,0,96.09,49.41Z" transform="translate(-20 -8.38)" fill="#62a5aa"/><path d="M85.54,47.4a23.39,23.39,0,0,0,7-1.13l1.39,2.32h3.52l5.87-3.52a1.38,1.38,0,0,0,.48-1.93l-1.68-2.79a23.31,23.31,0,0,0,4.13-5.76l3.05,0.71A1.38,1.38,0,0,0,111,34.22l1.89-8.16,0-.08a1.38,1.38,0,0,0-1.06-1.69l-3.05-.71a23.3,23.3,0,0,0-1.12-6.82l2.91-1.82a1.38,1.38,0,0,0,.45-1.94l-0.79-1.26A69.27,69.27,0,0,0,94.61,8.64l1.26,0.29L99.8,41.31,88.68,38.74,88,33.29a22.82,22.82,0,0,1,5.3,3.77L94,36a26.79,26.79,0,0,0-12.33-6.41c-5.21-1.2-8.82-.7-14.23-2a28.18,28.18,0,0,1-5.5-1.9,23.23,23.23,0,0,0,1.11,5.54L60.39,33a1.38,1.38,0,0,0-.45,1.94l4.48,7.17a1.38,1.38,0,0,0,1.94.45l2.75-1.71a23.23,23.23,0,0,0,5.47,3.92L73.82,48a1.91,1.91,0,0,0,0,.55H85.27ZM72.77,35.06l-0.11,0-8.07-1.87-0.11,0,3.14-4.38,0.07,0h0a47.2,47.2,0,0,0,8.41,1.09h0.07Z" transform="translate(-20 -8.38)" fill="#62a5aa"/><path d="M74.88,49.73l7.9,1.83,0.35,0.08a1.37,1.37,0,0,0,1.68-1.06l0.46-2H73.81A1.26,1.26,0,0,0,74.88,49.73Z" transform="translate(-20 -8.38)" fill="#62a5aa"/><path d="M87.05,25.15l-1.21-10-5.31,8.05c0.56,0.11,1.15.23,1.79,0.38A27.08,27.08,0,0,1,87.05,25.15Z" transform="translate(-20 -8.38)" fill="#62a5aa"/><path d="M52.42,116.68l-1.27-3.79a28.63,28.63,0,0,0,6.6-5.66L61.12,109a1.69,1.69,0,0,0,2.33-.73l4.79-9.18a1.69,1.69,0,0,0-.73-2.33L64,94.9a28.55,28.55,0,0,0,.62-8.66L68.24,85a1.69,1.69,0,0,0,1.09-2.18l-3.24-9.71,0-.11a1.69,1.69,0,0,0-2.18-1.09l-3.64,1.21a28.53,28.53,0,0,0-5.53-6.4L56.57,63a1.69,1.69,0,0,0-.77-2.32L46.54,56a1.69,1.69,0,0,0-2.31.77l-1.85,3.7a28.44,28.44,0,0,0-8.9-.61l-1.27-3.8A1.69,1.69,0,0,0,30,55l-7.29,2.43a67.28,67.28,0,0,0-1.19,33.36l1.32-19.87,1.25-.42,7.12-2.37,6.11-2,24.81,31.3-13.26,4.43-4.16-5.27a27.94,27.94,0,0,1,7.94.55l0.1-1.54a32.8,32.8,0,0,0-17,1.19c-4.31,1.44-7.3,3.25-10.88,4.94,0.17,0.42.33,0.84,0.5,1.26a51.2,51.2,0,0,0,4.66-2.34v0l0.08,0-0.24,7.57-0.13,0-1.56.52a68,68,0,0,0,5.42,8.4,28.38,28.38,0,0,0,4.38,0l1.3,3.89a1.69,1.69,0,0,0,2.18,1.09L50.95,119l0.39-.13A1.68,1.68,0,0,0,52.42,116.68Z" transform="translate(-20 -8.38)" fill="#f1c972"/><path d="M30.87,79.06l-0.39,11.8c0.65-.25,1.35-0.5,2.11-0.75a33.16,33.16,0,0,1,5.92-1.42Z" transform="translate(-20 -8.38)" fill="#f1c972"/></svg>