<svg id="Layer_3" data-name="Layer 3" xmlns="http://www.w3.org/2000/svg" xmlns:xlink="http://www.w3.org/1999/xlink" viewBox="0 0 137.52 137.52"><defs><linearGradient id="linear-gradient" x1="-68.76" y1="-49" x2="68.76" y2="-49" gradientTransform="translate(117.76 68.76) rotate(-90)" gradientUnits="userSpaceOnUse"><stop offset="0" stop-color="#fff"/><stop offset="0.2" stop-color="#c2c2c2"/><stop offset="0.49" stop-color="#707070"/><stop offset="0.73" stop-color="#333"/><stop offset="0.91" stop-color="#0e0e0e"/><stop offset="1"/></linearGradient><clipPath id="clip-path" transform="translate(-22.24 -7.24)"><rect x="45.33" y="29.1" width="89.87" height="111.93" fill="none"/></clipPath><clipPath id="clip-path-2" transform="translate(-22.24 -7.24)"><polygon points="54.36 70.49 54.36 138.92 90.05 125.55 126.16 138.92 126.16 70.49 54.36 70.49" fill="none"/></clipPath></defs><title>rewards-4-good-image</title><circle cx="68.76" cy="68.76" r="68.76" opacity="0.1" fill="url(#linear-gradient)"/><g clip-path="url(#clip-path)"><path d="M53.71,95.64A40.51,40.51,0,0,1,46.07,72c0-23.22,19.82-42.11,44.19-42.11S134.45,48.74,134.45,72A40.51,40.51,0,0,1,127,95.36V140L90.15,126.3,53.71,140V95.64Z" transform="translate(-22.24 -7.24)" fill="#f6c871"/><path d="M90.26,30.6c24,0,43.44,18.52,43.44,41.37a39.8,39.8,0,0,1-7.44,23.16v43.75L90.15,125.51,54.46,138.88V95.4A39.82,39.82,0,0,1,46.82,72c0-22.85,19.45-41.37,43.44-41.37m0-1.5A45.77,45.77,0,0,0,58.51,41.63a42.67,42.67,0,0,0-9.65,13.62A41.21,41.21,0,0,0,53,95.88V141l2-.76L90.15,127.1l35.59,13.18,2,0.75V95.6a41.22,41.22,0,0,0,3.9-40.34A42.67,42.67,0,0,0,122,41.63,45.77,45.77,0,0,0,90.26,29.1" transform="translate(-22.24 -7.24)" fill="#e8e8e8"/><polygon points="103.92 131.68 67.81 118.31 32.12 131.68 32.12 63.25 103.92 63.25 103.92 131.68" fill="#ad2c24"/></g><g clip-path="url(#clip-path-2)"><line x1="27.61" y1="89.81" x2="107.57" y2="89.81" fill="none" stroke="#852019" stroke-miterlimit="10" stroke-width="0.75"/><line x1="27.61" y1="92.17" x2="107.57" y2="92.17" fill="none" stroke="#852019" stroke-miterlimit="10" stroke-width="0.75"/><line x1="27.61" y1="94.52" x2="107.57" y2="94.52" fill="none" stroke="#852019" stroke-miterlimit="10" stroke-width="0.75"/><line x1="27.61" y1="96.87" x2="107.57" y2="96.87" fill="none" stroke="#852019" stroke-miterlimit="10" stroke-width="0.75"/><line x1="27.61" y1="99.22" x2="107.57" y2="99.22" fill="none" stroke="#852019" stroke-miterlimit="10" stroke-width="0.75"/><line x1="27.61" y1="101.57" x2="107.57" y2="101.57" fill="none" stroke="#852019" stroke-miterlimit="10" stroke-width="0.75"/><line x1="27.61" y1="103.92" x2="107.57" y2="103.92" fill="none" stroke="#852019" stroke-miterlimit="10" stroke-width="0.75"/><line x1="27.61" y1="106.28" x2="107.57" y2="106.28" fill="none" stroke="#852019" stroke-miterlimit="10" stroke-width="0.75"/><line x1="27.61" y1="108.63" x2="107.57" y2="108.63" fill="none" stroke="#852019" stroke-miterlimit="10" stroke-width="0.75"/><line x1="27.61" y1="110.98" x2="107.57" y2="110.98" fill="none" stroke="#852019" stroke-miterlimit="10" stroke-width="0.75"/><line x1="27.61" y1="113.33" x2="107.57" y2="113.33" fill="none" stroke="#852019" stroke-miterlimit="10" stroke-width="0.75"/><line x1="27.61" y1="115.68" x2="107.57" y2="115.68" fill="none" stroke="#852019" stroke-miterlimit="10" stroke-width="0.75"/><line x1="27.61" y1="118.03" x2="107.57" y2="118.03" fill="none" stroke="#852019" stroke-miterlimit="10" stroke-width="0.75"/><line x1="27.61" y1="120.39" x2="107.57" y2="120.39" fill="none" stroke="#852019" stroke-miterlimit="10" stroke-width="0.75"/><line x1="27.61" y1="122.74" x2="107.57" y2="122.74" fill="none" stroke="#852019" stroke-miterlimit="10" stroke-width="0.75"/><line x1="27.61" y1="125.09" x2="107.57" y2="125.09" fill="none" stroke="#852019" stroke-miterlimit="10" stroke-width="0.75"/><line x1="27.61" y1="127.44" x2="107.57" y2="127.44" fill="none" stroke="#852019" stroke-miterlimit="10" stroke-width="0.75"/><line x1="27.61" y1="129.79" x2="107.57" y2="129.79" fill="none" stroke="#852019" stroke-miterlimit="10" stroke-width="0.75"/></g><g clip-path="url(#clip-path)"><path d="M90.26,112.25C66.93,112.25,47.94,94.2,47.94,72s19-40.24,42.32-40.24S132.58,49.82,132.58,72s-19,40.24-42.32,40.24" transform="translate(-22.24 -7.24)" fill="#fff2bd"/><path d="M90.26,32.89a42,42,0,0,1,29.17,11.5,37.74,37.74,0,0,1,0,55.25,42.75,42.75,0,0,1-58.34,0,37.74,37.74,0,0,1,0-55.25,42,42,0,0,1,29.17-11.5m0-2.24c-24,0-43.44,18.52-43.44,41.37s19.45,41.37,43.44,41.37S133.7,94.85,133.7,72,114.25,30.64,90.26,30.64" transform="translate(-22.24 -7.24)" fill="#f6c871"/><path d="M63.86,58.91l1.41,2.69H62.84l-1.18-2.34H60.33v2.34H58.07V53.3h4.25a2.79,2.79,0,0,1,3,3,2.82,2.82,0,0,1-1.49,2.64m-3.52-1.5h1.42a1.08,1.08,0,1,0,0-2.14H60.33v2.14Z" transform="translate(-22.24 -7.24)" fill="#f6c871"/><path d="M63.86,58.91l1.41,2.69H62.84l-1.18-2.34H60.33v2.34H58.07V53.3h4.25a2.79,2.79,0,0,1,3,3A2.82,2.82,0,0,1,63.86,58.91Zm-3.52-1.5h1.42a1.08,1.08,0,1,0,0-2.14H60.33v2.14Z" transform="translate(-22.24 -7.24)" fill="none" stroke="#f6c871" stroke-miterlimit="10" stroke-width="1.5"/><polygon points="44.83 54.35 44.83 46.06 51.2 46.06 51.2 48.16 47.13 48.16 47.13 49.26 50.88 49.26 50.88 51.09 47.13 51.09 47.13 52.35 51.25 52.35 51.25 54.35 44.83 54.35" fill="#f6c871"/><polygon points="44.83 54.35 44.83 46.06 51.2 46.06 51.2 48.16 47.13 48.16 47.13 49.26 50.88 49.26 50.88 51.09 47.13 51.09 47.13 52.35 51.25 52.35 51.25 54.35 44.83 54.35" fill="none" stroke="#f6c871" stroke-miterlimit="10" stroke-width="1.5"/><polygon points="54.88 54.41 52.42 46.06 54.79 46.06 56.05 50.76 57.4 46.06 59.42 46.06 60.78 50.76 62.05 46.06 64.16 46.06 61.72 54.41 59.72 54.41 58.3 49.54 56.88 54.41 54.88 54.41" fill="#f6c871"/><polygon points="54.88 54.41 52.42 46.06 54.79 46.06 56.05 50.76 57.4 46.06 59.42 46.06 60.78 50.76 62.05 46.06 64.16 46.06 61.72 54.41 59.72 54.41 58.3 49.54 56.88 54.41 54.88 54.41" fill="none" stroke="#f6c871" stroke-miterlimit="10" stroke-width="1.5"/><path d="M88.86,60.52l-0.41,1.07h-2.2l3.32-8.35h2.25l3.35,8.35H92.81L92.4,60.52H88.86Zm2.8-1.9-1-2.64-1,2.64h2.06Z" transform="translate(-22.24 -7.24)" fill="#f6c871"/><path d="M88.86,60.52l-0.41,1.07h-2.2l3.32-8.35h2.25l3.35,8.35H92.81L92.4,60.52H88.86Zm2.8-1.9-1-2.64-1,2.64h2.06Z" transform="translate(-22.24 -7.24)" fill="none" stroke="#f6c871" stroke-miterlimit="10" stroke-width="1.5"/><path d="M102.23,58.91l1.41,2.69h-2.43L100,59.26H98.71v2.34H96.45V53.3h4.25a2.79,2.79,0,0,1,3,3,2.82,2.82,0,0,1-1.49,2.64m-3.52-1.5h1.42a1.08,1.08,0,1,0,0-2.14H98.71v2.14Z" transform="translate(-22.24 -7.24)" fill="#f6c871"/><path d="M102.23,58.91l1.41,2.69h-2.43L100,59.26H98.71v2.34H96.45V53.3h4.25a2.79,2.79,0,0,1,3,3A2.82,2.82,0,0,1,102.23,58.91Zm-3.52-1.5h1.42a1.08,1.08,0,1,0,0-2.14H98.71v2.14Z" transform="translate(-22.24 -7.24)" fill="none" stroke="#f6c871" stroke-miterlimit="10" stroke-width="1.5"/><path d="M105.44,61.59V53.3h3.1c2.41,0,4.7.79,4.7,4.14s-2.44,4.15-4.86,4.15h-2.94Zm2.31-2h0.83c1.56,0,2.33-.59,2.33-2.14s-0.75-2.06-2.44-2.06h-0.72v4.2Z" transform="translate(-22.24 -7.24)" fill="#f6c871"/><path d="M105.44,61.59V53.3h3.1c2.41,0,4.7.79,4.7,4.14s-2.44,4.15-4.86,4.15h-2.94Zm2.31-2h0.83c1.56,0,2.33-.59,2.33-2.14s-0.75-2.06-2.44-2.06h-0.72v4.2Z" transform="translate(-22.24 -7.24)" fill="none" stroke="#f6c871" stroke-miterlimit="10" stroke-width="1.5"/><path d="M118.1,61.73A5.74,5.74,0,0,1,114,60.48l1.12-1.57a5.17,5.17,0,0,0,2.88.91c1.19,0,1.51-.3,1.51-0.7s-0.4-.56-1.61-0.68c-1.73-.17-3.44-0.62-3.44-2.61s1.57-2.65,3.44-2.65a5.42,5.42,0,0,1,3.52,1L120.3,55.8a4.79,4.79,0,0,0-2.35-.61c-0.85,0-1.15.19-1.15,0.56s0.41,0.59,1.63.7c1.8,0.18,3.4.54,3.4,2.56,0,1.65-1.41,2.72-3.74,2.72" transform="translate(-22.24 -7.24)" fill="#f6c871"/><path d="M118.1,61.73A5.74,5.74,0,0,1,114,60.48l1.12-1.57a5.17,5.17,0,0,0,2.88.91c1.19,0,1.51-.3,1.51-0.7s-0.4-.56-1.61-0.68c-1.73-.17-3.44-0.62-3.44-2.61s1.57-2.65,3.44-2.65a5.42,5.42,0,0,1,3.52,1L120.3,55.8a4.79,4.79,0,0,0-2.35-.61c-0.85,0-1.15.19-1.15,0.56s0.41,0.59,1.63.7c1.8,0.18,3.4.54,3.4,2.56C121.84,60.65,120.43,61.73,118.1,61.73Z" transform="translate(-22.24 -7.24)" fill="none" stroke="#f6c871" stroke-miterlimit="10" stroke-width="1.5"/><path d="M82.2,67.74H80.88l0.39-1.84h1.34l0.12-.57a2.3,2.3,0,0,1,2.48-2,6.64,6.64,0,0,1,1.88.2l-0.4,1.77a6.75,6.75,0,0,0-1.24-.12,0.57,0.57,0,0,0-.68.57l0,0.13H86.6l-0.39,1.84H84.33l-1.43,6.42H80.77Z" transform="translate(-22.24 -7.24)" fill="#f6c871"/><path d="M82.2,67.74H80.88l0.39-1.84h1.34l0.12-.57a2.3,2.3,0,0,1,2.48-2,6.64,6.64,0,0,1,1.88.2l-0.4,1.77a6.75,6.75,0,0,0-1.24-.12,0.57,0.57,0,0,0-.68.57l0,0.13H86.6l-0.39,1.84H84.33l-1.43,6.42H80.77Z" transform="translate(-22.24 -7.24)" fill="none" stroke="#f6c871" stroke-miterlimit="10" stroke-width="1.5"/><path d="M89.59,72.44a2.7,2.7,0,0,1-3-2.86,3.67,3.67,0,0,1,3.91-3.82,2.68,2.68,0,0,1,2.93,2.88,3.66,3.66,0,0,1-3.88,3.8m0.24-1.83a1.67,1.67,0,0,0,1.44-1.86,0.93,0.93,0,0,0-1-1,1.71,1.71,0,0,0-1.44,1.86,0.93,0.93,0,0,0,1,1" transform="translate(-22.24 -7.24)" fill="#f6c871"/><path d="M89.59,72.44a2.7,2.7,0,0,1-3-2.86,3.67,3.67,0,0,1,3.91-3.82,2.68,2.68,0,0,1,2.93,2.88A3.66,3.66,0,0,1,89.59,72.44Zm0.24-1.83a1.67,1.67,0,0,0,1.44-1.86,0.93,0.93,0,0,0-1-1,1.71,1.71,0,0,0-1.44,1.86A0.93,0.93,0,0,0,89.83,70.6Z" transform="translate(-22.24 -7.24)" fill="none" stroke="#f6c871" stroke-miterlimit="10" stroke-width="1.5"/><path d="M94.1,72.32L95.44,66,97,65.84l0,1.35a2.83,2.83,0,0,1,2-1.31l0,2.13c-1.64,0-2.13.49-2.29,1.25l-0.64,3.06H94.1Z" transform="translate(-22.24 -7.24)" fill="#f6c871"/><path d="M94.1,72.32L95.44,66,97,65.84l0,1.35a2.83,2.83,0,0,1,2-1.31l0,2.13c-1.64,0-2.13.49-2.29,1.25l-0.64,3.06H94.1Z" transform="translate(-22.24 -7.24)" fill="none" stroke="#f6c871" stroke-miterlimit="10" stroke-width="1.5"/><path d="M64.11,90.38c-3.24,0-6.13-2.64-6.13-7.05C58,78.27,61.39,76,65.37,76a6.72,6.72,0,0,1,5.54,2.49l-2.75,2.45a3.73,3.73,0,0,0-2.92-1.38,3.32,3.32,0,0,0-3.32,3.66c0,2.38,1.17,3.87,3.34,3.87,1.92,0,2.72-.89,2.89-1.66h-3v-2.9h6.54V90l-2.19.32-0.74-2.45a4.82,4.82,0,0,1-4.64,2.49" transform="translate(-22.24 -7.24)" fill="#f6c871"/><path d="M64.11,90.38c-3.24,0-6.13-2.64-6.13-7.05C58,78.27,61.39,76,65.37,76a6.72,6.72,0,0,1,5.54,2.49l-2.75,2.45a3.73,3.73,0,0,0-2.92-1.38,3.32,3.32,0,0,0-3.32,3.66c0,2.38,1.17,3.87,3.34,3.87,1.92,0,2.72-.89,2.89-1.66h-3v-2.9h6.54V90l-2.19.32-0.74-2.45A4.82,4.82,0,0,1,64.11,90.38Z" transform="translate(-22.24 -7.24)" fill="none" stroke="#f6c871" stroke-miterlimit="10" stroke-width="1.5"/><path d="M81.41,90.4c-3.24,0-7.49-1.83-7.49-7.22S78.16,76,81.41,76s7.49,1.83,7.49,7.2-4.24,7.22-7.49,7.22m0-3.43a3.71,3.71,0,1,0-3.55-3.71A3.46,3.46,0,0,0,81.41,87" transform="translate(-22.24 -7.24)" fill="#f6c871"/><path d="M81.41,90.4c-3.24,0-7.49-1.83-7.49-7.22S78.16,76,81.41,76s7.49,1.83,7.49,7.2S84.65,90.4,81.41,90.4Zm0-3.43a3.71,3.71,0,1,0-3.55-3.71A3.46,3.46,0,0,0,81.41,87Z" transform="translate(-22.24 -7.24)" fill="none" stroke="#f6c871" stroke-miterlimit="10" stroke-width="1.5"/><path d="M98.4,90.4c-3.24,0-7.49-1.83-7.49-7.22S95.16,76,98.4,76s7.49,1.83,7.49,7.2-4.24,7.22-7.49,7.22m0-3.43a3.71,3.71,0,1,0-3.55-3.71A3.46,3.46,0,0,0,98.4,87" transform="translate(-22.24 -7.24)" fill="#f6c871"/><path d="M98.4,90.4c-3.24,0-7.49-1.83-7.49-7.22S95.16,76,98.4,76s7.49,1.83,7.49,7.2S101.64,90.4,98.4,90.4Zm0-3.43a3.71,3.71,0,1,0-3.55-3.71A3.46,3.46,0,0,0,98.4,87Z" transform="translate(-22.24 -7.24)" fill="none" stroke="#f6c871" stroke-miterlimit="10" stroke-width="1.5"/><path d="M108.64,90.17v-14h5.22c4.06,0,7.92,1.34,7.92,7s-4.11,7-8.18,7h-5Zm3.88-3.39h1.4c2.62,0,3.92-1,3.92-3.6s-1.26-3.47-4.11-3.47h-1.21v7.07Z" transform="translate(-22.24 -7.24)" fill="#f6c871"/><path d="M108.64,90.17v-14h5.22c4.06,0,7.92,1.34,7.92,7s-4.11,7-8.18,7h-5Zm3.88-3.39h1.4c2.62,0,3.92-1,3.92-3.6s-1.26-3.47-4.11-3.47h-1.21v7.07Z" transform="translate(-22.24 -7.24)" fill="none" stroke="#f6c871" stroke-miterlimit="10" stroke-width="1.5"/><rect x="35.12" y="60.61" width="20.67" height="2.2" fill="#f6c871"/><rect x="80.33" y="60.61" width="19.89" height="2.2" fill="#f6c871"/></g><path d="M63.83,58.93l1.41,2.68H62.81l-1.17-2.34H60.31v2.34H58V53.32H62.3a2.78,2.78,0,0,1,3,3A2.82,2.82,0,0,1,63.83,58.93Zm-3.52-1.5h1.42a1.08,1.08,0,1,0,0-2.14H60.31v2.14Z" transform="translate(-22.24 -7.24)" fill="#5e5249"/><path d="M67,61.61V53.32h6.38v2.09H69.35v1.11h3.75v1.82H69.35v1.26h4.12v2H67Z" transform="translate(-22.24 -7.24)" fill="#5e5249"/><path d="M77.09,61.67l-2.45-8.34H77L78.26,58l1.35-4.7h2L83,58l1.26-4.7h2.11l-2.44,8.34h-2L80.51,56.8l-1.42,4.87h-2Z" transform="translate(-22.24 -7.24)" fill="#5e5249"/><path d="M88.84,60.54l-0.41,1.07h-2.2l3.32-8.34h2.25l3.34,8.34H92.79l-0.41-1.07H88.84Zm2.8-1.9L90.6,56l-1,2.64h2.06Z" transform="translate(-22.24 -7.24)" fill="#5e5249"/><path d="M102.21,58.93l1.41,2.68h-2.43L100,59.27H98.68v2.34H96.42V53.32h4.25a2.78,2.78,0,0,1,3,3A2.82,2.82,0,0,1,102.21,58.93Zm-3.52-1.5h1.42a1.08,1.08,0,1,0,0-2.14H98.68v2.14Z" transform="translate(-22.24 -7.24)" fill="#5e5249"/><path d="M105.42,61.61V53.32h3.1c2.41,0,4.7.79,4.7,4.14s-2.44,4.15-4.85,4.15h-2.94Zm2.3-2h0.83c1.55,0,2.33-.59,2.33-2.14s-0.75-2.06-2.44-2.06h-0.72V59.6Z" transform="translate(-22.24 -7.24)" fill="#5e5249"/><path d="M118.07,61.74A5.73,5.73,0,0,1,114,60.49l1.12-1.57a5.17,5.17,0,0,0,2.88.91c1.19,0,1.51-.3,1.51-0.71s-0.4-.56-1.61-0.68c-1.73-.17-3.43-0.62-3.43-2.61s1.57-2.65,3.43-2.65a5.41,5.41,0,0,1,3.52,1l-1.15,1.67a4.78,4.78,0,0,0-2.35-.62c-0.85,0-1.15.19-1.15,0.56s0.41,0.59,1.63.7c1.8,0.18,3.4.54,3.4,2.56C121.81,60.67,120.4,61.74,118.07,61.74Z" transform="translate(-22.24 -7.24)" fill="#5e5249"/><path d="M82.18,67.75H80.86l0.39-1.83h1.34l0.12-.57a2.3,2.3,0,0,1,2.48-2,6.66,6.66,0,0,1,1.88.2l-0.4,1.77a6.73,6.73,0,0,0-1.24-.12,0.57,0.57,0,0,0-.68.57l0,0.13h1.86l-0.39,1.83H84.31l-1.43,6.42H80.75Z" transform="translate(-22.24 -7.24)" fill="#5e5249"/><path d="M89.56,72.45a2.7,2.7,0,0,1-3-2.86,3.67,3.67,0,0,1,3.9-3.81,2.68,2.68,0,0,1,2.93,2.87A3.66,3.66,0,0,1,89.56,72.45Zm0.24-1.83a1.67,1.67,0,0,0,1.44-1.86,0.93,0.93,0,0,0-1-1,1.71,1.71,0,0,0-1.44,1.86A0.93,0.93,0,0,0,89.8,70.62Z" transform="translate(-22.24 -7.24)" fill="#5e5249"/><path d="M94.08,72.33L95.41,66,97,65.85l0,1.35a2.82,2.82,0,0,1,2-1.31l0,2.13c-1.64,0-2.12.49-2.29,1.25l-0.64,3.05H94.08Z" transform="translate(-22.24 -7.24)" fill="#5e5249"/><path d="M64.09,90.39c-3.24,0-6.13-2.64-6.13-7.05C58,78.29,61.37,76,65.35,76a6.72,6.72,0,0,1,5.54,2.49l-2.75,2.45a3.74,3.74,0,0,0-2.92-1.38,3.32,3.32,0,0,0-3.32,3.66c0,2.38,1.17,3.87,3.34,3.87,1.92,0,2.72-.89,2.89-1.66h-3V82.49h6.54V90l-2.19.32L68.73,87.9A4.82,4.82,0,0,1,64.09,90.39Z" transform="translate(-22.24 -7.24)" fill="#5e5249"/><path d="M81.36,90.41c-3.24,0-7.49-1.83-7.49-7.22S78.12,76,81.36,76s7.49,1.83,7.49,7.2S84.61,90.41,81.36,90.41Zm0-3.43a3.71,3.71,0,1,0-3.55-3.72A3.46,3.46,0,0,0,81.36,87Z" transform="translate(-22.24 -7.24)" fill="#5e5249"/><path d="M98.36,90.41c-3.24,0-7.49-1.83-7.49-7.22S95.11,76,98.36,76s7.49,1.83,7.49,7.2S101.6,90.41,98.36,90.41Zm0-3.43a3.71,3.71,0,1,0-3.55-3.72A3.46,3.46,0,0,0,98.36,87Z" transform="translate(-22.24 -7.24)" fill="#5e5249"/><path d="M108.6,90.19v-14h5.22c4.05,0,7.92,1.34,7.92,7s-4.11,7-8.19,7h-5Zm3.89-3.39h1.4c2.62,0,3.92-1,3.92-3.6s-1.26-3.47-4.11-3.47h-1.21v7.07Z" transform="translate(-22.24 -7.24)" fill="#5e5249"/><g clip-path="url(#clip-path)"><polygon points="66.92 34.56 68 31.39 69.12 34.55 72.47 34.59 69.81 36.63 70.81 39.83 68.05 37.94 65.31 39.87 66.26 36.66 63.58 34.66 66.92 34.56" fill="#f6c871"/></g></svg>