<svg id="6b265dac-79b1-40ae-ace3-bfd60d1a4705" data-name="Layer 6" xmlns="http://www.w3.org/2000/svg" viewBox="0 0 152.7 137.8"><title>welcome-image</title><path d="M24.9,87a20.6,20.6,0,0,1,8.3,7,20.5,20.5,0,0,1,36.5-5.3l3.1-.3A20.4,20.4,0,0,1,86.7,94a20.4,20.4,0,0,1,12.5-4.3h0.6A20.4,20.4,0,0,1,126.7,91a20.4,20.4,0,0,1,7.1-1.3h0.8a20.7,20.7,0,0,1,4.5-3.6A68.9,68.9,0,1,0,3.8,78,20.4,20.4,0,0,1,24.9,87Z" transform="translate(-3.3 -0.8)" fill="#c6c6c6" opacity="0.39"/><path d="M33.4,94.7a20.5,20.5,0,0,1,18.7,12.2,20.5,20.5,0,0,1,30.1,4.3A20.3,20.3,0,0,1,99.8,113a20.5,20.5,0,0,1,33.5-11.5,68.4,68.4,0,0,0,5.8-15.4,20.7,20.7,0,0,0-4.5,3.6h-0.8a20.4,20.4,0,0,0-7.1,1.3,20.4,20.4,0,0,0-26.8-1.3H99.2A20.4,20.4,0,0,0,86.7,94a20.4,20.4,0,0,0-13.9-5.5l-3.1.3A20.5,20.5,0,0,0,33.2,94a20.6,20.6,0,0,0-8.3-7A20.4,20.4,0,0,0,3.8,78a68.5,68.5,0,0,0,10.7,29.3A20.5,20.5,0,0,1,33.4,94.7Z" transform="translate(-3.3 -0.8)" fill="#fff"/><path d="M107.2,129a20.4,20.4,0,0,1-21.9-3.8,20.5,20.5,0,0,1-29.5-4.7l-3.1.3a20.5,20.5,0,0,1-16.9-8.9,20.5,20.5,0,0,1-7.9,10.7,68.9,68.9,0,0,0,16.2,10.1l2.3,1a11.1,11.1,0,0,0,2,.8A69,69,0,0,0,107.2,129Z" transform="translate(-3.3 -0.8)" fill="#d1eced"/><path d="M14.5,107.3l0.9,1.3v-3.1Z" transform="translate(-3.3 -0.8)" fill="#d1eced"/><path d="M119.9,96.5A20.5,20.5,0,0,0,99.8,113a20.3,20.3,0,0,0-17.6-1.8,20.5,20.5,0,0,0-30.1-4.3,20.5,20.5,0,0,0-33.8-5.6v11.4a69.2,69.2,0,0,0,9.6,9.8,20.5,20.5,0,0,0,7.9-10.7,20.5,20.5,0,0,0,16.9,8.9l3.1-.3a20.5,20.5,0,0,0,29.5,4.7,20.4,20.4,0,0,0,21.9,3.8,69.2,69.2,0,0,0,26.1-27.5A20.4,20.4,0,0,0,119.9,96.5Z" transform="translate(-3.3 -0.8)" fill="#d1eced"/><path d="M18.3,36h-3v69.5a20.6,20.6,0,0,1,3-4.2V36Z" transform="translate(-3.3 -0.8)" fill="#cecdcd"/><path d="M15.3,105.5v3.1q1.4,2.1,3,4.1V101.3A20.6,20.6,0,0,0,15.3,105.5Z" transform="translate(-3.3 -0.8)" fill="#d1eced"/><polygon points="152.7 80.5 113.7 80.5 113.7 65.8 113.7 53.5 152.7 53.5 140.5 67.4 152.7 80.5" fill="#0d9a48"/><rect x="9.2" y="40.5" width="115.5" height="26" fill="#8cc440"/><polygon points="113.7 80.5 113.8 66.6 124.7 66.5 113.7 80.5" fill="#346833"/><path d="M20.7,47h2.7l0.5,2.2,0.6,2.3L25,53.7l0.4,1.9a16.2,16.2,0,0,1,.3-1.8l0.6-2.2,0.7-2.4L27.6,47h2l0.7,2.5L31,51.8l0.6,2.1,0.4,1.7a31.8,31.8,0,0,1,.7-3.8L33.8,47h2.6L33,59H30.8l-1.3-4.5q-0.6-2.1-1-3.7l-0.4,1.8-0.5,2.1-0.6,2.2L26.3,59H24.1Z" transform="translate(-3.3 -0.8)" fill="#fff"/><path d="M38.9,47h8v1.9H41.4v2.9h4v1.9h-4v3.5h5.7V59H38.9V47Z" transform="translate(-3.3 -0.8)" fill="#fff"/><path d="M50,47h2.5V57.1h5.3V59H50V47Z" transform="translate(-3.3 -0.8)" fill="#fff"/><path d="M70.5,56.4a5.8,5.8,0,0,1-2.1,2.2,5.9,5.9,0,0,1-3,.7,6.4,6.4,0,0,1-2.5-.5A5.1,5.1,0,0,1,61,57.5a5.6,5.6,0,0,1-1.1-2,8,8,0,0,1-.4-2.5,7.7,7.7,0,0,1,.4-2.5,5.7,5.7,0,0,1,1.1-2,5.1,5.1,0,0,1,1.8-1.3,6.4,6.4,0,0,1,2.5-.5,6.7,6.7,0,0,1,2.9.6,5.3,5.3,0,0,1,2.2,2l-2.4,1.2A2.9,2.9,0,0,0,67,49.3a3,3,0,0,0-1.6-.4,3.1,3.1,0,0,0-1.4.3,2.9,2.9,0,0,0-1,.9,3.8,3.8,0,0,0-.6,1.3,6.3,6.3,0,0,0-.2,1.6,5.8,5.8,0,0,0,.2,1.6,3.9,3.9,0,0,0,.6,1.3,3.2,3.2,0,0,0,1,.9,3.3,3.3,0,0,0,3.1-.1,3.2,3.2,0,0,0,1.1-1.5Z" transform="translate(-3.3 -0.8)" fill="#fff"/><path d="M78.4,59.3a6.4,6.4,0,0,1-2.3-.4,5.2,5.2,0,0,1-1.9-1.2,5.6,5.6,0,0,1-1.3-2,8.3,8.3,0,0,1,0-5.4,5.6,5.6,0,0,1,1.3-2,5.2,5.2,0,0,1,1.9-1.2,6.4,6.4,0,0,1,2.3-.4,6.5,6.5,0,0,1,2.3.4,5.3,5.3,0,0,1,1.9,1.2,5.5,5.5,0,0,1,1.3,2,7.5,7.5,0,0,1,.5,2.7,7.1,7.1,0,0,1-.5,2.7,5.8,5.8,0,0,1-1.3,2,5.2,5.2,0,0,1-1.9,1.2A6.4,6.4,0,0,1,78.4,59.3Zm0-2.2a2.9,2.9,0,0,0,2.3-1,4.6,4.6,0,0,0,.9-3.1,5.9,5.9,0,0,0-.2-1.7,3.9,3.9,0,0,0-.7-1.3,2.9,2.9,0,0,0-1-.8,3.1,3.1,0,0,0-1.4-.3A2.8,2.8,0,0,0,76.1,50a4.9,4.9,0,0,0-.8,3,5.6,5.6,0,0,0,.3,1.8,3.9,3.9,0,0,0,.7,1.3,2.8,2.8,0,0,0,1,.8Z" transform="translate(-3.3 -0.8)" fill="#fff"/><path d="M87.2,47h2.9l0.8,2,0.8,2.1,0.7,1.9L93,54.6l0.5-1.5,0.7-1.9L95.1,49,96,47h2.8V59H96.5V56.7q0-1.2,0-2.4t0-2.2,0.1-1.7l-0.6,1.7L95,54.4l-1,2.4-1,2.3H92.9l-1-2.4-1-2.4L90,52.1l-0.6-1.6q0,0.7.1,1.7t0,2.2v2.4q0,1.2,0,2.3H87.2V47Z" transform="translate(-3.3 -0.8)" fill="#fff"/><path d="M102.2,47h8v1.9h-5.5v2.9h4v1.9h-4v3.5h5.7V59h-8.2V47Z" transform="translate(-3.3 -0.8)" fill="#fff"/><path d="M113.3,56.4h2.6V59h-2.6V56.4Zm0.4-1.2-0.4-4.8V47h2.6v3.5l-0.4,4.8h-1.7Z" transform="translate(-3.3 -0.8)" fill="#fff"/></svg>