<svg xmlns="http://www.w3.org/2000/svg" xmlns:xlink="http://www.w3.org/1999/xlink" viewBox="0 0 163.1 174.5"><defs><linearGradient id="88af30db-1c84-4f1d-93fa-7a6cb6a0c186" x1="78.28" y1="96.07" x2="170.95" y2="-5.07" gradientUnits="userSpaceOnUse"><stop offset="0" stop-color="#fff" stop-opacity="0"/><stop offset="0.13" stop-color="#fff" stop-opacity="0.19"/><stop offset="0.3" stop-color="#fff" stop-opacity="0.43"/><stop offset="0.48" stop-color="#fff" stop-opacity="0.63"/><stop offset="0.64" stop-color="#fff" stop-opacity="0.79"/><stop offset="0.78" stop-color="#fff" stop-opacity="0.91"/><stop offset="0.91" stop-color="#fff" stop-opacity="0.98"/><stop offset="1" stop-color="#fff"/></linearGradient><linearGradient id="faa7ae15-c595-42c2-aa21-4c677f258c80" x1="89" y1="44.8" x2="155.67" y2="44.8" gradientUnits="userSpaceOnUse"><stop offset="0" stop-color="#77c4c8"/><stop offset="1" stop-color="#51adaf"/></linearGradient></defs><title>william-image</title><g style="isolation:isolate"><g id="ae363d31-0e41-40d6-a176-61865f6a08cc" data-name="Layer 5"><path d="M24.9,87a20.6,20.6,0,0,1,8.3,7,20.5,20.5,0,0,1,36.5-5.3l3.1-.3A20.4,20.4,0,0,1,86.7,94a20.4,20.4,0,0,1,12.5-4.3h0.6A20.4,20.4,0,0,1,126.7,91a20.4,20.4,0,0,1,7.1-1.3h0.8a20.7,20.7,0,0,1,4.5-3.6A68.9,68.9,0,1,0,3.8,78,20.4,20.4,0,0,1,24.9,87Z" transform="translate(22 -0.8)" fill="#c6c6c6" opacity="0.39"/><path d="M33.4,94.7a20.5,20.5,0,0,1,18.7,12.2,20.5,20.5,0,0,1,30.1,4.3A20.3,20.3,0,0,1,99.8,113a20.5,20.5,0,0,1,33.5-11.5,68.4,68.4,0,0,0,5.8-15.4,20.7,20.7,0,0,0-4.5,3.6h-0.8a20.4,20.4,0,0,0-7.1,1.3,20.4,20.4,0,0,0-26.8-1.3H99.2A20.4,20.4,0,0,0,86.7,94a20.4,20.4,0,0,0-13.9-5.5l-3.1.3A20.5,20.5,0,0,0,33.2,94a20.6,20.6,0,0,0-8.3-7A20.4,20.4,0,0,0,3.8,78a68.5,68.5,0,0,0,10.7,29.3A20.5,20.5,0,0,1,33.4,94.7Z" transform="translate(22 -0.8)" fill="#fff"/><path d="M107.2,129a20.4,20.4,0,0,1-21.9-3.8,20.5,20.5,0,0,1-29.5-4.7l-3.1.3a20.5,20.5,0,0,1-16.9-8.9,20.5,20.5,0,0,1-7.9,10.7,68.9,68.9,0,0,0,16.2,10.1l2.3,1a11.1,11.1,0,0,0,2,.8A69,69,0,0,0,107.2,129Z" transform="translate(22 -0.8)" fill="#d1eced"/><path d="M99.8,113a20.3,20.3,0,0,0-17.6-1.8,20.5,20.5,0,0,0-30.1-4.3,20.5,20.5,0,0,0-37.7.4,69.3,69.3,0,0,0,13.4,15.2,20.5,20.5,0,0,0,7.9-10.7,20.5,20.5,0,0,0,16.9,8.9l3.1-.3a20.5,20.5,0,0,0,29.5,4.7,20.4,20.4,0,0,0,21.9,3.8,69.2,69.2,0,0,0,26.1-27.5A20.5,20.5,0,0,0,99.8,113Z" transform="translate(22 -0.8)" fill="#d1eced"/><polygon points="155.7 14.9 0 74.2 104.7 174.5 155.7 14.9" fill="url(#88af30db-1c84-4f1d-93fa-7a6cb6a0c186)"/><polygon points="89 41 155.7 14.9 139.5 68 118 59.5 101.8 74.7 102.5 48 89 41" fill="url(#faa7ae15-c595-42c2-aa21-4c677f258c80)" style="mix-blend-mode:multiply"/><polygon points="108.3 47.7 107.7 63.4 146.3 23.9 108.3 47.7" fill="#fff"/></g></g></svg>